<?xml version="1.0" encoding="utf-8"?>
<svg viewBox="0 0 500 500" xmlns="http://www.w3.org/2000/svg">
  <path d="M 101.258 461.58 L 101.258 414.84 L 107.57 414.84 L 133.402 453.073 L 133.76 454.059 L 133.76 414.84 L 138.506 414.84 L 138.506 461.58 L 133.76 461.58 L 106.182 420.749 L 105.914 420.033 L 105.914 461.58 L 101.258 461.58 Z" style="fill: rgb(255, 255, 255);"/>
  <path d="M 143.923 461.58 L 164.114 414.84 L 169.308 414.84 L 189.32 461.58 L 184.261 461.58 L 177.545 445.865 L 155.787 445.865 L 148.981 461.58 L 143.923 461.58 Z M 167.024 420.705 L 166.711 419.451 L 166.352 420.705 L 157.399 441.657 L 175.307 441.657 L 167.024 420.705 Z" style="fill: rgb(255, 255, 255);"/>
  <path d="M 194.826 461.58 L 194.826 414.84 L 199.304 414.84 L 199.304 461.58 L 194.826 461.58 Z" style="fill: rgb(255, 255, 255);"/>
  <path d="M 209.197 461.58 L 209.197 414.84 L 213.675 414.84 L 213.675 457.327 L 233.06 457.327 L 233.06 461.804 L 209.197 461.58 Z" style="fill: rgb(255, 255, 255);"/>
  <path d="M 255.892 461.58 L 255.892 414.84 L 279.666 414.84 L 279.666 419.093 L 260.594 419.093 L 260.594 435.926 L 278.949 435.926 L 278.949 440.404 L 260.594 440.404 L 260.594 461.804 L 255.892 461.58 Z" style="fill: rgb(255, 255, 255);"/>
  <path d="M 282.486 461.58 L 302.633 414.84 L 307.826 414.84 L 327.883 461.58 L 322.824 461.58 L 316.108 445.865 L 294.305 445.865 L 287.545 461.58 L 282.486 461.58 Z M 305.587 420.705 L 305.229 419.451 L 304.915 420.705 L 295.961 441.657 L 313.87 441.657 L 305.587 420.705 Z" style="fill: rgb(255, 255, 255);"/>
  <path d="M 333.389 461.58 L 333.389 414.84 L 337.866 414.84 L 337.866 461.58 L 333.389 461.58 Z" style="fill: rgb(255, 255, 255);"/>
  <path d="M 347.716 461.58 L 347.716 414.84 L 358.863 414.84 C 361.573 414.799 364.281 414.965 366.967 415.332 C 368.784 415.632 370.544 416.237 372.16 417.123 C 374.394 418.372 376.239 420.217 377.488 422.451 C 378.786 424.711 379.467 427.277 379.458 429.882 C 379.565 433.63 378.105 437.248 375.428 439.866 C 374.389 440.874 373.194 441.706 371.892 442.328 C 371.014 442.772 370.078 443.086 369.116 443.269 C 367.813 443.497 366.497 443.613 365.176 443.627 L 378.876 461.535 L 372.966 461.535 L 357.117 440.358 L 358.505 440.358 C 360.967 440.358 362.983 440.358 364.325 440.358 C 365.865 440.287 367.383 439.938 368.802 439.329 C 370.638 438.537 372.196 437.211 373.28 435.524 C 374.372 433.898 374.949 431.977 374.936 430.017 C 374.931 428.338 374.533 426.681 373.772 425.181 C 372.294 422.414 369.675 420.436 366.609 419.765 C 364.433 419.393 362.23 419.227 360.027 419.272 L 352.596 419.272 L 352.596 461.759 L 347.716 461.58 Z" style="fill: rgb(255, 255, 255);"/>
  <path d="M 397.724 461.58 L 397.724 445.91 L 381.472 414.84 L 386.621 414.84 L 400.052 441.075 L 413.483 414.84 L 418.452 414.84 L 402.201 445.91 L 402.201 461.58 L 397.724 461.58 Z" style="fill: rgb(255, 255, 255);"/>
  <path d="M 0.377 -0.552 L 500.502 -0.552 L 500.502 114.132 C 497.323 114.58 484.144 115.118 480.921 115.7 L 480.921 19.298 L 20.002 19.298 L 20.002 164.556 C 16.868 165.765 3.645 166.929 0.377 168.093 L 0.377 -0.552 Z M 500.502 207.62 L 500.502 499.529 L 0.377 499.529 L 0.377 261.581 C 3.599 260.685 16.823 259.745 20.002 258.76 L 20.002 480.038 L 480.921 480.038 L 480.921 209.68 C 484.099 208.964 497.278 208.248 500.502 207.62 Z" style="fill-rule: evenodd; fill: rgb(255, 255, 255);"/>
  <path d="M 219.324 242.836 C 213.644 242.749 208.107 241.064 203.343 237.973 C 187.246 228.186 191.3 217.705 192.399 199.004 C 185.683 204.296 174.311 211.898 158.296 221.818 C 145.06 229.617 130.387 234.661 115.16 236.641 C 109.976 236.599 105.363 233.345 103.578 228.476 C 102.537 226.45 111.222 205.316 112.728 202.536 C 115.305 196.571 116.677 190.157 116.78 183.66 C 84.645 194.603 66.464 194.893 32.533 211.743 C -23.168 239.189 -182.166 284.235 -236.071 250.248 C -237.813 249.58 -239.128 248.116 -239.603 246.31 C -168.905 266.286 -41.639 228.476 20.954 194.719 C 42.724 183.139 90.436 159.516 111.396 158.127 C 117.035 157.848 122.634 159.174 127.55 161.947 C 141.794 169.475 142.141 179.897 140.404 196.688 C 147.353 192.055 159.048 185.224 175.491 176.19 C 194.542 167.506 201.316 164.148 219.324 164.148 C 224.014 164.148 227.719 167.101 230.557 173.064 C 231.599 175.381 229.747 179.261 224.767 184.645 C 201.606 210.468 215.155 237.45 252.27 219.385 C 261.579 215.39 270.468 210.463 278.788 204.678 C 288.215 196.787 296.883 188.027 304.671 178.508 C 329.106 150.599 340.163 91.076 352.787 51.587 C 358.768 34.489 365.079 25.763 371.72 25.416 C 398.008 24.084 386.253 82.796 382.779 96.057 C 373.805 130.507 344.448 170.516 335.647 207.457 C 423.079 185.108 623.708 87.081 703.554 137.396 C 705.228 138.109 706.472 139.569 706.911 141.334 C 614.848 115.279 392.681 213.422 350.353 224.886 C 308.029 236.351 308.492 302.995 297.78 331.483 C 292.396 347.521 286.778 363.387 281.046 379.135 C 274.503 395.928 267.845 404.322 261.186 404.322 C 233.221 404.322 240.805 352.211 252.443 323.84 C 265.819 291.473 293.612 261.885 303.629 226.333 C 276.646 234.672 247.464 242.836 219.266 242.836 L 219.324 242.836 Z M 287.301 301.663 C 279.368 302.416 259.797 343.41 258.349 364.66 C 254.991 421.867 279.194 318.339 287.301 301.663 Z M 339.411 143.244 C 349.66 142.435 374.963 93.566 376.584 68.262 C 380.927 0.056 349.601 123.327 339.411 143.534 L 339.411 143.244 Z" style="fill: rgb(255, 255, 255);"/>
</svg>